<svg class="img-fluid" width="600" height="600" viewBox="0 0 600 600" xmlns="http://www.w3.org/2000/svg"><g transform="rotate(19.367909040302038,300,300)"><path stroke="none" stroke-width="0" fill="#12C322" d="M300,129.52103675297622C335.59023527351667,123.65575182425977,371.7968138649165,104.54055234143544,405.6324174429396,117.03928606250372C440.15987800839855,129.7935889280408,462.5572280774354,163.66190882182644,480.0682867406116,196.03752617779315C497.30076499486563,227.89808542701618,515.6297662821542,265.5008294917794,504.5907094066183,300C493.4468568398603,334.82667714767035,440.2529411567071,338.8288253755089,423.9109382725402,371.54001356719016C405.8325521695978,407.72685640443933,441.21324116778334,464.6352379432003,409.68213077204285,489.9750231795921C380.2645397443118,513.6162914209863,337.4286023609899,475.95804907093947,300,471.1202860301014C268.13477853495243,467.001607239883,234.4924612456216,477.5456739067704,205.55101389327214,463.5904426602196C175.86530245571737,449.27633587814034,141.37543663188842,426.07516459561134,138.495483813683,393.2446758955105C135.3214461473327,357.06171932758286,195.2496490689174,336.095507399942,191.20054958326853,300C186.28525346378183,256.18282334561934,109.91216878987346,237.49263695308682,116.12687976517023,193.84080453568458C121.2205036954065,158.0634338608841,178.61113188632842,160.7632482511662,212.72249026944172,148.83091878858613C241.33491073278253,138.8221462308956,270.0909566739714,134.45005898911242,300,129.52103675297622" style="opacity: 0.67;"></path></g></svg>